# MagicaVoxel @ Ephtracy

# group
o 

# material
mtllib car.mtl
usemtl palette

# normals
vn -1 0 0
vn 1 0 0
vn 0 0 1
vn 0 0 -1
vn 0 -1 0
vn 0 1 0

# texcoords
vt 0.431641 0.5
vt 0.541016 0.5
vt 0.544922 0.5
vt 0.728516 0.5
vt 0.978516 0.5
vt 0.994141 0.5

# verts
v -1.1 0.2 0.3
v -1.1 0.2 0.2
v -1.1 0.2 -0.3
v -1.1 0.2 -0.4
v -1.1 0.4 0.3
v -1.1 0.4 0.2
v -1.1 0.4 -0.3
v -1.1 0.4 -0.4
v -1 0.3 0.4
v -1 0.3 0.3
v -1 0.3 0.2
v -1 0.3 -0.3
v -1 0.3 -0.4
v -1 0.3 -0.5
v -1 0.4 0.4
v -1 0.4 0.3
v -1 0.4 0.2
v -1 0.4 -0.3
v -1 0.4 -0.4
v -1 0.4 -0.5
v -1 0.6 0.4
v -1 0.6 -0.5
v -0.8 0 0.3
v -0.8 0 0.2
v -0.8 0 -0.3
v -0.8 0 -0.4
v -0.8 0.2 0.3
v -0.8 0.2 0.2
v -0.8 0.2 -0.3
v -0.8 0.2 -0.4
v -0.8 0.6 0.4
v -0.8 0.6 -0.5
v -0.8 0.7 0.3
v -0.8 0.7 -0.4
v -0.8 1.1 0.3
v -0.8 1.1 -0.4
v -0.8 1.2 0.4
v -0.8 1.2 -0.5
v -0.7 0.7 0.3
v -0.7 0.7 -0.4
v -0.7 1.1 0.3
v -0.7 1.1 -0.4
v -0.4 0.3 0.4
v -0.4 0.3 0.3
v -0.4 0.3 0.2
v -0.4 0.3 -0.3
v -0.4 0.3 -0.4
v -0.4 0.3 -0.5
v -0.4 0.4 0.4
v -0.4 0.4 0.3
v -0.4 0.4 0.2
v -0.4 0.4 -0.3
v -0.4 0.4 -0.4
v -0.4 0.4 -0.5
v -0.1 0.7 0.4
v -0.1 0.7 0.3
v -0.1 0.7 -0.4
v -0.1 0.7 -0.5
v -0.1 1.1 0.4
v -0.1 1.1 0.3
v -0.1 1.1 -0.4
v -0.1 1.1 -0.5
v 0.5 0 0.3
v 0.5 0 0.2
v 0.5 0 -0.3
v 0.5 0 -0.4
v 0.5 0.2 0.3
v 0.5 0.2 0.2
v 0.5 0.2 -0.3
v 0.5 0.2 -0.4
v 0.6 0.7 0.4
v 0.6 0.7 0.3
v 0.6 0.7 -0.4
v 0.6 0.7 -0.5
v 0.6 1.1 0.4
v 0.6 1.1 0.3
v 0.6 1.1 -0.4
v 0.6 1.1 -0.5
v 0.9 0.3 0.4
v 0.9 0.3 0.3
v 0.9 0.3 0.2
v 0.9 0.3 -0.3
v 0.9 0.3 -0.4
v 0.9 0.3 -0.5
v 0.9 0.4 0.4
v 0.9 0.4 0.3
v 0.9 0.4 0.2
v 0.9 0.4 -0.3
v 0.9 0.4 -0.4
v 0.9 0.4 -0.5
v -0.8 0.3 0.4
v -0.8 0.3 0.3
v -0.8 0.3 0.2
v -0.8 0.3 -0.3
v -0.8 0.3 -0.4
v -0.8 0.3 -0.5
v -0.8 0.4 0.4
v -0.8 0.4 0.3
v -0.8 0.4 0.2
v -0.8 0.4 -0.3
v -0.8 0.4 -0.4
v -0.8 0.4 -0.5
v -0.7 0.7 0.4
v -0.7 0.7 0.3
v -0.7 0.7 -0.4
v -0.7 0.7 -0.5
v -0.7 1.1 0.4
v -0.7 1.1 0.3
v -0.7 1.1 -0.4
v -0.7 1.1 -0.5
v -0.4 0 0.3
v -0.4 0 0.2
v -0.4 0 -0.3
v -0.4 0 -0.4
v -0.4 0.2 0.3
v -0.4 0.2 0.2
v -0.4 0.2 -0.3
v -0.4 0.2 -0.4
v 0 0.7 0.4
v 0 0.7 0.3
v 0 0.7 -0.4
v 0 0.7 -0.5
v 0 1.1 0.4
v 0 1.1 0.3
v 0 1.1 -0.4
v 0 1.1 -0.5
v 0.5 0.3 0.4
v 0.5 0.3 0.3
v 0.5 0.3 0.2
v 0.5 0.3 -0.3
v 0.5 0.3 -0.4
v 0.5 0.3 -0.5
v 0.5 0.4 0.4
v 0.5 0.4 0.3
v 0.5 0.4 0.2
v 0.5 0.4 -0.3
v 0.5 0.4 -0.4
v 0.5 0.4 -0.5
v 0.6 0.7 0.3
v 0.6 0.7 -0.4
v 0.6 1.1 0.3
v 0.6 1.1 -0.4
v 0.7 0.7 0.4
v 0.7 0.7 0.3
v 0.7 0.7 -0.4
v 0.7 0.7 -0.5
v 0.7 1.1 0.3
v 0.7 1.1 -0.4
v 0.7 1.2 0.4
v 0.7 1.2 -0.5
v 0.8 0.6 0.4
v 0.8 0.6 0.3
v 0.8 0.6 -0.4
v 0.8 0.6 -0.5
v 0.8 0.7 0.4
v 0.8 0.7 0.3
v 0.8 0.7 -0.4
v 0.8 0.7 -0.5
v 0.9 0 0.3
v 0.9 0 0.2
v 0.9 0 -0.3
v 0.9 0 -0.4
v 0.9 0.2 0.3
v 0.9 0.2 0.2
v 0.9 0.2 -0.3
v 0.9 0.2 -0.4
v 0.9 0.5 0.4
v 0.9 0.5 0.3
v 0.9 0.5 -0.4
v 0.9 0.5 -0.5
v 0.9 0.6 0.4
v 0.9 0.6 0.3
v 0.9 0.6 -0.4
v 0.9 0.6 -0.5
v 0.9 0.7 0.3
v 0.9 0.7 -0.4
v 1 0.3 0.4
v 1 0.3 0.3
v 1 0.3 -0.4
v 1 0.3 -0.5
v 1 0.4 0.4
v 1 0.4 0.3
v 1 0.4 0.2
v 1 0.4 -0.3
v 1 0.4 -0.4
v 1 0.4 -0.5
v 1 0.5 0.4
v 1 0.5 0.3
v 1 0.5 0.2
v 1 0.5 0.1
v 1 0.5 -0.2
v 1 0.5 -0.3
v 1 0.5 -0.4
v 1 0.5 -0.5
v 1 0.6 0.3
v 1 0.6 -0.4
v 1.1 0.2 0.3
v 1.1 0.2 0.2
v 1.1 0.2 -0.3
v 1.1 0.2 -0.4
v 1.1 0.3 0.2
v 1.1 0.3 -0.3
v 1.1 0.4 0.3
v 1.1 0.4 0.2
v 1.1 0.4 0.1
v 1.1 0.4 -0.2
v 1.1 0.4 -0.3
v 1.1 0.4 -0.4
v 1.1 0.5 0.2
v 1.1 0.5 0.1
v 1.1 0.5 -0.2
v 1.1 0.5 -0.3
v -1 0.3 0.4
v -1 0.4 0.4
v -1 0.6 0.4
v -0.8 0.3 0.4
v -0.8 0.4 0.4
v -0.8 0.6 0.4
v -0.8 1.2 0.4
v -0.7 0.7 0.4
v -0.7 1.1 0.4
v -0.4 0.3 0.4
v -0.4 0.4 0.4
v -0.1 0.7 0.4
v -0.1 1.1 0.4
v 0 0.7 0.4
v 0 1.1 0.4
v 0.5 0.3 0.4
v 0.5 0.4 0.4
v 0.6 0.7 0.4
v 0.6 1.1 0.4
v 0.7 0.7 0.4
v 0.7 1.2 0.4
v 0.8 0.6 0.4
v 0.8 0.7 0.4
v 0.9 0.3 0.4
v 0.9 0.4 0.4
v 0.9 0.5 0.4
v 0.9 0.6 0.4
v 1 0.3 0.4
v 1 0.4 0.4
v 1 0.5 0.4
v -1.1 0.2 0.3
v -1.1 0.4 0.3
v -1 0.3 0.3
v -1 0.4 0.3
v -0.8 0 0.3
v -0.8 0.2 0.3
v -0.8 0.3 0.3
v -0.8 0.4 0.3
v -0.7 0.1 0.3
v -0.7 0.3 0.3
v -0.7 0.7 0.3
v -0.7 1.1 0.3
v -0.5 0.1 0.3
v -0.5 0.3 0.3
v -0.4 0 0.3
v -0.4 0.2 0.3
v -0.4 0.3 0.3
v -0.4 0.4 0.3
v -0.1 0.7 0.3
v -0.1 1.1 0.3
v 0 0.7 0.3
v 0 1.1 0.3
v 0.5 0 0.3
v 0.5 0.2 0.3
v 0.5 0.3 0.3
v 0.5 0.4 0.3
v 0.6 0.1 0.3
v 0.6 0.3 0.3
v 0.6 0.7 0.3
v 0.6 1.1 0.3
v 0.8 0.1 0.3
v 0.8 0.3 0.3
v 0.8 0.6 0.3
v 0.8 0.7 0.3
v 0.9 0 0.3
v 0.9 0.2 0.3
v 0.9 0.3 0.3
v 0.9 0.4 0.3
v 0.9 0.5 0.3
v 0.9 0.6 0.3
v 0.9 0.7 0.3
v 1 0.3 0.3
v 1 0.4 0.3
v 1 0.5 0.3
v 1 0.6 0.3
v 1.1 0.2 0.3
v 1.1 0.4 0.3
v 1 0.4 0.2
v 1 0.5 0.2
v 1.1 0.4 0.2
v 1.1 0.5 0.2
v -1.1 0.2 -0.3
v -1.1 0.4 -0.3
v -1 0.3 -0.3
v -1 0.4 -0.3
v -0.8 0 -0.3
v -0.8 0.2 -0.3
v -0.8 0.3 -0.3
v -0.8 0.4 -0.3
v -0.7 0.1 -0.3
v -0.7 0.3 -0.3
v -0.5 0.1 -0.3
v -0.5 0.3 -0.3
v -0.4 0 -0.3
v -0.4 0.2 -0.3
v -0.4 0.3 -0.3
v -0.4 0.4 -0.3
v 0.5 0 -0.3
v 0.5 0.2 -0.3
v 0.5 0.3 -0.3
v 0.5 0.4 -0.3
v 0.6 0.1 -0.3
v 0.6 0.3 -0.3
v 0.8 0.1 -0.3
v 0.8 0.3 -0.3
v 0.9 0 -0.3
v 0.9 0.2 -0.3
v 0.9 0.3 -0.3
v 0.9 0.4 -0.3
v 1 0.3 -0.3
v 1.1 0.2 -0.3
v 1.1 0.3 -0.3
v -0.8 0.7 -0.4
v -0.8 1.1 -0.4
v -0.7 0.7 -0.4
v -0.7 1.1 -0.4
v 0.6 0.7 -0.4
v 0.6 1.1 -0.4
v 0.7 0.7 -0.4
v 0.7 1.1 -0.4
v -0.8 0.7 0.3
v -0.8 1.1 0.3
v -0.7 0.7 0.3
v -0.7 1.1 0.3
v 0.6 0.7 0.3
v 0.6 1.1 0.3
v 0.7 0.7 0.3
v 0.7 1.1 0.3
v -1.1 0.2 0.2
v -1.1 0.4 0.2
v -1 0.3 0.2
v -1 0.4 0.2
v -0.8 0 0.2
v -0.8 0.2 0.2
v -0.8 0.3 0.2
v -0.8 0.4 0.2
v -0.7 0.1 0.2
v -0.7 0.3 0.2
v -0.5 0.1 0.2
v -0.5 0.3 0.2
v -0.4 0 0.2
v -0.4 0.2 0.2
v -0.4 0.3 0.2
v -0.4 0.4 0.2
v 0.5 0 0.2
v 0.5 0.2 0.2
v 0.5 0.3 0.2
v 0.5 0.4 0.2
v 0.6 0.1 0.2
v 0.6 0.3 0.2
v 0.8 0.1 0.2
v 0.8 0.3 0.2
v 0.9 0 0.2
v 0.9 0.2 0.2
v 0.9 0.3 0.2
v 0.9 0.4 0.2
v 1 0.3 0.2
v 1.1 0.2 0.2
v 1.1 0.3 0.2
v 1 0.4 -0.3
v 1 0.5 -0.3
v 1.1 0.4 -0.3
v 1.1 0.5 -0.3
v -1.1 0.2 -0.4
v -1.1 0.4 -0.4
v -1 0.3 -0.4
v -1 0.4 -0.4
v -0.8 0 -0.4
v -0.8 0.2 -0.4
v -0.8 0.3 -0.4
v -0.8 0.4 -0.4
v -0.7 0.1 -0.4
v -0.7 0.3 -0.4
v -0.7 0.7 -0.4
v -0.7 1.1 -0.4
v -0.5 0.1 -0.4
v -0.5 0.3 -0.4
v -0.4 0 -0.4
v -0.4 0.2 -0.4
v -0.4 0.3 -0.4
v -0.4 0.4 -0.4
v -0.1 0.7 -0.4
v -0.1 1.1 -0.4
v 0 0.7 -0.4
v 0 1.1 -0.4
v 0.5 0 -0.4
v 0.5 0.2 -0.4
v 0.5 0.3 -0.4
v 0.5 0.4 -0.4
v 0.6 0.1 -0.4
v 0.6 0.3 -0.4
v 0.6 0.7 -0.4
v 0.6 1.1 -0.4
v 0.8 0.1 -0.4
v 0.8 0.3 -0.4
v 0.8 0.6 -0.4
v 0.8 0.7 -0.4
v 0.9 0 -0.4
v 0.9 0.2 -0.4
v 0.9 0.3 -0.4
v 0.9 0.4 -0.4
v 0.9 0.5 -0.4
v 0.9 0.6 -0.4
v 0.9 0.7 -0.4
v 1 0.3 -0.4
v 1 0.4 -0.4
v 1 0.5 -0.4
v 1 0.6 -0.4
v 1.1 0.2 -0.4
v 1.1 0.4 -0.4
v -1 0.3 -0.5
v -1 0.4 -0.5
v -1 0.6 -0.5
v -0.8 0.3 -0.5
v -0.8 0.4 -0.5
v -0.8 0.6 -0.5
v -0.8 1.2 -0.5
v -0.7 0.7 -0.5
v -0.7 1.1 -0.5
v -0.4 0.3 -0.5
v -0.4 0.4 -0.5
v -0.1 0.7 -0.5
v -0.1 1.1 -0.5
v 0 0.7 -0.5
v 0 1.1 -0.5
v 0.5 0.3 -0.5
v 0.5 0.4 -0.5
v 0.6 0.7 -0.5
v 0.6 1.1 -0.5
v 0.7 0.7 -0.5
v 0.7 1.2 -0.5
v 0.8 0.6 -0.5
v 0.8 0.7 -0.5
v 0.9 0.3 -0.5
v 0.9 0.4 -0.5
v 0.9 0.5 -0.5
v 0.9 0.6 -0.5
v 1 0.3 -0.5
v 1 0.4 -0.5
v 1 0.5 -0.5
v -0.8 0 0.3
v -0.4 0 0.3
v 0.5 0 0.3
v 0.9 0 0.3
v -0.8 0 0.2
v -0.4 0 0.2
v 0.5 0 0.2
v 0.9 0 0.2
v -0.8 0 -0.3
v -0.4 0 -0.3
v 0.5 0 -0.3
v 0.9 0 -0.3
v -0.8 0 -0.4
v -0.4 0 -0.4
v 0.5 0 -0.4
v 0.9 0 -0.4
v -1.1 0.2 0.3
v -0.8 0.2 0.3
v -0.4 0.2 0.3
v 0.5 0.2 0.3
v 0.9 0.2 0.3
v 1.1 0.2 0.3
v -1.1 0.2 0.2
v -0.8 0.2 0.2
v -0.4 0.2 0.2
v 0.5 0.2 0.2
v 0.9 0.2 0.2
v 1.1 0.2 0.2
v -1.1 0.2 -0.3
v -0.8 0.2 -0.3
v -0.4 0.2 -0.3
v 0.5 0.2 -0.3
v 0.9 0.2 -0.3
v 1.1 0.2 -0.3
v -1.1 0.2 -0.4
v -0.8 0.2 -0.4
v -0.4 0.2 -0.4
v 0.5 0.2 -0.4
v 0.9 0.2 -0.4
v 1.1 0.2 -0.4
v -1 0.3 0.4
v -0.8 0.3 0.4
v -0.4 0.3 0.4
v 0.5 0.3 0.4
v 0.9 0.3 0.4
v 1 0.3 0.4
v -1 0.3 0.3
v -0.8 0.3 0.3
v -0.4 0.3 0.3
v 0.5 0.3 0.3
v 0.9 0.3 0.3
v 1 0.3 0.3
v -1 0.3 0.2
v -0.8 0.3 0.2
v -0.4 0.3 0.2
v 0.5 0.3 0.2
v 0.9 0.3 0.2
v 1 0.3 0.2
v 1.1 0.3 0.2
v -1 0.3 -0.3
v -0.8 0.3 -0.3
v -0.4 0.3 -0.3
v 0.5 0.3 -0.3
v 0.9 0.3 -0.3
v 1 0.3 -0.3
v 1.1 0.3 -0.3
v -1 0.3 -0.4
v -0.8 0.3 -0.4
v -0.4 0.3 -0.4
v 0.5 0.3 -0.4
v 0.9 0.3 -0.4
v 1 0.3 -0.4
v -1 0.3 -0.5
v -0.8 0.3 -0.5
v -0.4 0.3 -0.5
v 0.5 0.3 -0.5
v 0.9 0.3 -0.5
v 1 0.3 -0.5
v -0.8 0.4 0.4
v -0.4 0.4 0.4
v 0.5 0.4 0.4
v 0.9 0.4 0.4
v -0.8 0.4 0.3
v -0.4 0.4 0.3
v 0.5 0.4 0.3
v 0.9 0.4 0.3
v -0.8 0.4 0.2
v -0.4 0.4 0.2
v 0.5 0.4 0.2
v 0.9 0.4 0.2
v -0.8 0.4 -0.3
v -0.4 0.4 -0.3
v 0.5 0.4 -0.3
v 0.9 0.4 -0.3
v -0.8 0.4 -0.4
v -0.4 0.4 -0.4
v 0.5 0.4 -0.4
v 0.9 0.4 -0.4
v -0.8 0.4 -0.5
v -0.4 0.4 -0.5
v 0.5 0.4 -0.5
v 0.9 0.4 -0.5
v -0.7 1.1 0.4
v -0.1 1.1 0.4
v 0 1.1 0.4
v 0.6 1.1 0.4
v -0.8 1.1 0.3
v -0.7 1.1 0.3
v -0.1 1.1 0.3
v 0 1.1 0.3
v 0.6 1.1 0.3
v 0.7 1.1 0.3
v -0.8 1.1 -0.4
v -0.7 1.1 -0.4
v -0.1 1.1 -0.4
v 0 1.1 -0.4
v 0.6 1.1 -0.4
v 0.7 1.1 -0.4
v -0.7 1.1 -0.5
v -0.1 1.1 -0.5
v 0 1.1 -0.5
v 0.6 1.1 -0.5
v -1.1 0.4 0.3
v -1 0.4 0.3
v 1 0.4 0.3
v 1.1 0.4 0.3
v -1.1 0.4 0.2
v -1 0.4 0.2
v 1 0.4 0.2
v 1.1 0.4 0.2
v -1.1 0.4 -0.3
v -1 0.4 -0.3
v 1 0.4 -0.3
v 1.1 0.4 -0.3
v -1.1 0.4 -0.4
v -1 0.4 -0.4
v 1 0.4 -0.4
v 1.1 0.4 -0.4
v 0.9 0.5 0.4
v 1 0.5 0.4
v 0.9 0.5 0.3
v 1 0.5 0.3
v 1 0.5 0.2
v 1.1 0.5 0.2
v 1 0.5 0.1
v 1.1 0.5 0.1
v 1 0.5 -0.2
v 1.1 0.5 -0.2
v 1 0.5 -0.3
v 1.1 0.5 -0.3
v 0.9 0.5 -0.4
v 1 0.5 -0.4
v 0.9 0.5 -0.5
v 1 0.5 -0.5
v -1 0.6 0.4
v -0.8 0.6 0.4
v 0.8 0.6 0.4
v 0.9 0.6 0.4
v 0.8 0.6 0.3
v 0.9 0.6 0.3
v 1 0.6 0.3
v 0.8 0.6 -0.4
v 0.9 0.6 -0.4
v 1 0.6 -0.4
v -1 0.6 -0.5
v -0.8 0.6 -0.5
v 0.8 0.6 -0.5
v 0.9 0.6 -0.5
v -0.7 0.7 0.4
v -0.1 0.7 0.4
v 0 0.7 0.4
v 0.6 0.7 0.4
v 0.7 0.7 0.4
v 0.8 0.7 0.4
v -0.8 0.7 0.3
v -0.7 0.7 0.3
v -0.1 0.7 0.3
v 0 0.7 0.3
v 0.6 0.7 0.3
v 0.7 0.7 0.3
v 0.8 0.7 0.3
v 0.9 0.7 0.3
v -0.8 0.7 -0.4
v -0.7 0.7 -0.4
v -0.1 0.7 -0.4
v 0 0.7 -0.4
v 0.6 0.7 -0.4
v 0.7 0.7 -0.4
v 0.8 0.7 -0.4
v 0.9 0.7 -0.4
v -0.7 0.7 -0.5
v -0.1 0.7 -0.5
v 0 0.7 -0.5
v 0.6 0.7 -0.5
v 0.7 0.7 -0.5
v 0.8 0.7 -0.5
v -0.8 1.2 0.4
v 0.7 1.2 0.4
v -0.8 1.2 -0.5
v 0.7 1.2 -0.5

# faces
f 5/5/1 2/5/1 1/5/1
f 6/5/1 2/5/1 5/5/1
f 7/5/1 4/5/1 3/5/1
f 8/5/1 4/5/1 7/5/1
f 15/3/1 10/3/1 9/3/1
f 16/3/1 10/3/1 15/3/1
f 17/3/1 12/3/1 11/3/1
f 18/3/1 12/3/1 17/3/1
f 19/3/1 14/3/1 13/3/1
f 20/3/1 14/3/1 19/3/1
f 21/2/1 18/2/1 17/2/1
f 21/2/1 16/2/1 15/2/1
f 21/2/1 20/2/1 19/2/1
f 21/2/1 19/2/1 18/2/1
f 21/2/1 17/2/1 16/2/1
f 22/2/1 20/2/1 21/2/1
f 27/6/1 24/6/1 23/6/1
f 28/6/1 24/6/1 27/6/1
f 29/6/1 26/6/1 25/6/1
f 30/6/1 26/6/1 29/6/1
f 33/2/1 32/2/1 31/2/1
f 34/2/1 32/2/1 33/2/1
f 35/2/1 33/2/1 31/2/1
f 36/2/1 32/2/1 34/2/1
f 37/2/1 35/2/1 31/2/1
f 37/2/1 36/2/1 35/2/1
f 38/2/1 32/2/1 36/2/1
f 38/2/1 36/2/1 37/2/1
f 41/4/1 40/4/1 39/4/1
f 42/4/1 40/4/1 41/4/1
f 49/3/1 44/3/1 43/3/1
f 50/3/1 44/3/1 49/3/1
f 51/3/1 46/3/1 45/3/1
f 52/3/1 46/3/1 51/3/1
f 53/3/1 48/3/1 47/3/1
f 54/3/1 48/3/1 53/3/1
f 59/2/1 56/2/1 55/2/1
f 60/2/1 56/2/1 59/2/1
f 61/2/1 58/2/1 57/2/1
f 62/2/1 58/2/1 61/2/1
f 67/6/1 64/6/1 63/6/1
f 68/6/1 64/6/1 67/6/1
f 69/6/1 66/6/1 65/6/1
f 70/6/1 66/6/1 69/6/1
f 75/2/1 72/2/1 71/2/1
f 76/2/1 72/2/1 75/2/1
f 77/2/1 74/2/1 73/2/1
f 78/2/1 74/2/1 77/2/1
f 85/3/1 80/3/1 79/3/1
f 86/3/1 80/3/1 85/3/1
f 87/3/1 82/3/1 81/3/1
f 88/3/1 82/3/1 87/3/1
f 89/3/1 84/3/1 83/3/1
f 90/3/1 84/3/1 89/3/1
f 91/3/2 92/3/2 97/3/2
f 97/3/2 92/3/2 98/3/2
f 93/3/2 94/3/2 99/3/2
f 99/3/2 94/3/2 100/3/2
f 95/3/2 96/3/2 101/3/2
f 101/3/2 96/3/2 102/3/2
f 103/2/2 104/2/2 107/2/2
f 107/2/2 104/2/2 108/2/2
f 105/2/2 106/2/2 109/2/2
f 109/2/2 106/2/2 110/2/2
f 111/6/2 112/6/2 115/6/2
f 115/6/2 112/6/2 116/6/2
f 113/6/2 114/6/2 117/6/2
f 117/6/2 114/6/2 118/6/2
f 119/2/2 120/2/2 123/2/2
f 123/2/2 120/2/2 124/2/2
f 121/2/2 122/2/2 125/2/2
f 125/2/2 122/2/2 126/2/2
f 127/3/2 128/3/2 133/3/2
f 133/3/2 128/3/2 134/3/2
f 129/3/2 130/3/2 135/3/2
f 135/3/2 130/3/2 136/3/2
f 131/3/2 132/3/2 137/3/2
f 137/3/2 132/3/2 138/3/2
f 139/4/2 140/4/2 141/4/2
f 141/4/2 140/4/2 142/4/2
f 143/2/2 144/2/2 147/2/2
f 145/2/2 146/2/2 148/2/2
f 143/2/2 147/2/2 149/2/2
f 147/2/2 148/2/2 149/2/2
f 148/2/2 146/2/2 150/2/2
f 149/2/2 148/2/2 150/2/2
f 151/2/2 152/2/2 155/2/2
f 155/2/2 152/2/2 156/2/2
f 153/2/2 154/2/2 157/2/2
f 157/2/2 154/2/2 158/2/2
f 159/6/2 160/6/2 163/6/2
f 163/6/2 160/6/2 164/6/2
f 161/6/2 162/6/2 165/6/2
f 165/6/2 162/6/2 166/6/2
f 167/2/2 168/2/2 171/2/2
f 171/2/2 168/2/2 172/2/2
f 169/2/2 170/2/2 173/2/2
f 173/2/2 170/2/2 174/2/2
f 172/2/2 173/2/2 175/2/2
f 175/2/2 173/2/2 176/2/2
f 177/3/2 178/3/2 181/3/2
f 181/3/2 178/3/2 182/3/2
f 179/3/2 180/3/2 185/3/2
f 185/3/2 180/3/2 186/3/2
f 182/2/2 183/2/2 187/2/2
f 181/2/2 182/2/2 187/2/2
f 187/2/2 183/2/2 188/2/2
f 188/2/2 183/2/2 189/2/2
f 185/2/2 186/2/2 192/2/2
f 184/2/2 185/2/2 192/2/2
f 192/2/2 186/2/2 193/2/2
f 193/2/2 186/2/2 194/2/2
f 190/2/2 191/2/2 195/2/2
f 189/2/2 190/2/2 195/2/2
f 192/2/2 193/2/2 195/2/2
f 191/2/2 192/2/2 195/2/2
f 188/2/2 189/2/2 195/2/2
f 195/2/2 193/2/2 196/2/2
f 197/5/2 198/5/2 201/5/2
f 199/5/2 200/5/2 202/5/2
f 197/5/2 201/5/2 203/5/2
f 201/5/2 202/5/2 203/5/2
f 203/5/2 202/5/2 204/5/2
f 204/5/2 202/5/2 205/5/2
f 205/5/2 202/5/2 206/5/2
f 202/5/2 200/5/2 207/5/2
f 206/5/2 202/5/2 207/5/2
f 207/5/2 200/5/2 208/5/2
f 204/1/2 205/1/2 209/1/2
f 205/5/2 206/5/2 210/5/2
f 209/1/2 205/1/2 210/1/2
f 206/1/2 207/1/2 211/1/2
f 210/5/2 206/5/2 211/5/2
f 211/1/2 207/1/2 212/1/2
f 216/3/3 214/3/3 213/3/3
f 217/2/3 215/2/3 214/2/3
f 217/3/3 214/3/3 216/3/3
f 218/2/3 215/2/3 217/2/3
f 220/2/3 219/2/3 218/2/3
f 220/2/3 218/2/3 217/2/3
f 221/2/3 219/2/3 220/2/3
f 223/2/3 220/2/3 217/2/3
f 224/2/3 220/2/3 223/2/3
f 225/2/3 219/2/3 221/2/3
f 226/2/3 224/2/3 223/2/3
f 226/2/3 225/2/3 224/2/3
f 227/2/3 219/2/3 225/2/3
f 227/2/3 225/2/3 226/2/3
f 228/3/3 223/3/3 222/3/3
f 229/2/3 226/2/3 223/2/3
f 229/3/3 223/3/3 228/3/3
f 230/2/3 226/2/3 229/2/3
f 231/2/3 219/2/3 227/2/3
f 232/2/3 230/2/3 229/2/3
f 232/2/3 231/2/3 230/2/3
f 233/2/3 219/2/3 231/2/3
f 233/2/3 231/2/3 232/2/3
f 234/2/3 232/2/3 229/2/3
f 235/2/3 232/2/3 234/2/3
f 237/2/3 234/2/3 229/2/3
f 238/2/3 234/2/3 237/2/3
f 239/2/3 234/2/3 238/2/3
f 240/3/3 237/3/3 236/3/3
f 241/2/3 238/2/3 237/2/3
f 241/3/3 237/3/3 240/3/3
f 242/2/3 238/2/3 241/2/3
f 245/5/3 244/5/3 243/5/3
f 246/5/3 244/5/3 245/5/3
f 248/5/3 245/5/3 243/5/3
f 249/5/3 245/5/3 248/5/3
f 251/6/3 248/6/3 247/6/3
f 251/6/3 250/6/3 249/6/3
f 251/6/3 249/6/3 248/6/3
f 252/6/3 250/6/3 251/6/3
f 255/6/3 251/6/3 247/6/3
f 255/5/3 252/5/3 251/5/3
f 256/6/3 250/6/3 252/6/3
f 256/5/3 252/5/3 255/5/3
f 257/6/3 255/6/3 247/6/3
f 257/6/3 256/6/3 255/6/3
f 258/6/3 256/6/3 257/6/3
f 259/6/3 250/6/3 256/6/3
f 259/6/3 256/6/3 258/6/3
f 260/6/3 250/6/3 259/6/3
f 261/4/3 254/4/3 253/4/3
f 262/4/3 254/4/3 261/4/3
f 266/5/3 259/5/3 258/5/3
f 267/5/3 259/5/3 266/5/3
f 269/6/3 266/6/3 265/6/3
f 269/6/3 268/6/3 267/6/3
f 269/6/3 267/6/3 266/6/3
f 270/6/3 268/6/3 269/6/3
f 271/4/3 264/4/3 263/4/3
f 272/4/3 264/4/3 271/4/3
f 273/6/3 269/6/3 265/6/3
f 273/5/3 270/5/3 269/5/3
f 274/6/3 268/6/3 270/6/3
f 274/5/3 270/5/3 273/5/3
f 277/6/3 273/6/3 265/6/3
f 277/6/3 274/6/3 273/6/3
f 278/6/3 274/6/3 277/6/3
f 279/6/3 268/6/3 274/6/3
f 279/6/3 274/6/3 278/6/3
f 280/6/3 268/6/3 279/6/3
f 282/2/3 276/2/3 275/2/3
f 283/2/3 276/2/3 282/2/3
f 284/5/3 279/5/3 278/5/3
f 286/2/3 282/2/3 281/2/3
f 287/2/3 282/2/3 286/2/3
f 288/5/3 285/5/3 284/5/3
f 288/5/3 284/5/3 278/5/3
f 289/5/3 285/5/3 288/5/3
f 292/1/3 291/1/3 290/1/3
f 293/1/3 291/1/3 292/1/3
f 296/5/3 295/5/3 294/5/3
f 297/5/3 295/5/3 296/5/3
f 299/5/3 296/5/3 294/5/3
f 300/5/3 296/5/3 299/5/3
f 302/6/3 299/6/3 298/6/3
f 302/6/3 301/6/3 300/6/3
f 302/6/3 300/6/3 299/6/3
f 303/6/3 301/6/3 302/6/3
f 304/6/3 302/6/3 298/6/3
f 304/5/3 303/5/3 302/5/3
f 305/6/3 301/6/3 303/6/3
f 305/5/3 303/5/3 304/5/3
f 306/6/3 304/6/3 298/6/3
f 306/6/3 305/6/3 304/6/3
f 307/6/3 305/6/3 306/6/3
f 308/6/3 301/6/3 305/6/3
f 308/6/3 305/6/3 307/6/3
f 309/6/3 301/6/3 308/6/3
f 311/5/3 308/5/3 307/5/3
f 312/5/3 308/5/3 311/5/3
f 314/6/3 311/6/3 310/6/3
f 314/6/3 313/6/3 312/6/3
f 314/6/3 312/6/3 311/6/3
f 315/6/3 313/6/3 314/6/3
f 316/6/3 314/6/3 310/6/3
f 316/5/3 315/5/3 314/5/3
f 317/6/3 313/6/3 315/6/3
f 317/5/3 315/5/3 316/5/3
f 318/6/3 316/6/3 310/6/3
f 318/6/3 317/6/3 316/6/3
f 319/6/3 317/6/3 318/6/3
f 320/6/3 313/6/3 317/6/3
f 320/6/3 317/6/3 319/6/3
f 321/6/3 313/6/3 320/6/3
f 322/5/3 320/5/3 319/5/3
f 323/5/3 322/5/3 319/5/3
f 324/5/3 322/5/3 323/5/3
f 327/2/3 326/2/3 325/2/3
f 328/2/3 326/2/3 327/2/3
f 331/2/3 330/2/3 329/2/3
f 332/2/3 330/2/3 331/2/3
f 333/2/4 334/2/4 335/2/4
f 335/2/4 334/2/4 336/2/4
f 337/2/4 338/2/4 339/2/4
f 339/2/4 338/2/4 340/2/4
f 341/5/4 342/5/4 343/5/4
f 343/5/4 342/5/4 344/5/4
f 341/5/4 343/5/4 346/5/4
f 346/5/4 343/5/4 347/5/4
f 345/6/4 346/6/4 349/6/4
f 347/6/4 348/6/4 349/6/4
f 346/6/4 347/6/4 349/6/4
f 349/6/4 348/6/4 350/6/4
f 345/6/4 349/6/4 351/6/4
f 349/5/4 350/5/4 351/5/4
f 350/6/4 348/6/4 352/6/4
f 351/5/4 350/5/4 352/5/4
f 345/6/4 351/6/4 353/6/4
f 351/6/4 352/6/4 353/6/4
f 353/6/4 352/6/4 354/6/4
f 352/6/4 348/6/4 355/6/4
f 354/6/4 352/6/4 355/6/4
f 355/6/4 348/6/4 356/6/4
f 354/5/4 355/5/4 358/5/4
f 358/5/4 355/5/4 359/5/4
f 357/6/4 358/6/4 361/6/4
f 359/6/4 360/6/4 361/6/4
f 358/6/4 359/6/4 361/6/4
f 361/6/4 360/6/4 362/6/4
f 357/6/4 361/6/4 363/6/4
f 361/5/4 362/5/4 363/5/4
f 362/6/4 360/6/4 364/6/4
f 363/5/4 362/5/4 364/5/4
f 357/6/4 363/6/4 365/6/4
f 363/6/4 364/6/4 365/6/4
f 365/6/4 364/6/4 366/6/4
f 364/6/4 360/6/4 367/6/4
f 366/6/4 364/6/4 367/6/4
f 367/6/4 360/6/4 368/6/4
f 366/5/4 367/5/4 369/5/4
f 366/5/4 369/5/4 370/5/4
f 370/5/4 369/5/4 371/5/4
f 372/1/4 373/1/4 374/1/4
f 374/1/4 373/1/4 375/1/4
f 376/5/4 377/5/4 378/5/4
f 378/5/4 377/5/4 379/5/4
f 376/5/4 378/5/4 381/5/4
f 381/5/4 378/5/4 382/5/4
f 380/6/4 381/6/4 384/6/4
f 382/6/4 383/6/4 384/6/4
f 381/6/4 382/6/4 384/6/4
f 384/6/4 383/6/4 385/6/4
f 380/6/4 384/6/4 388/6/4
f 384/5/4 385/5/4 388/5/4
f 385/6/4 383/6/4 389/6/4
f 388/5/4 385/5/4 389/5/4
f 380/6/4 388/6/4 390/6/4
f 388/6/4 389/6/4 390/6/4
f 390/6/4 389/6/4 391/6/4
f 389/6/4 383/6/4 392/6/4
f 391/6/4 389/6/4 392/6/4
f 392/6/4 383/6/4 393/6/4
f 386/4/4 387/4/4 394/4/4
f 394/4/4 387/4/4 395/4/4
f 391/5/4 392/5/4 399/5/4
f 399/5/4 392/5/4 400/5/4
f 398/6/4 399/6/4 402/6/4
f 400/6/4 401/6/4 402/6/4
f 399/6/4 400/6/4 402/6/4
f 402/6/4 401/6/4 403/6/4
f 396/4/4 397/4/4 404/4/4
f 404/4/4 397/4/4 405/4/4
f 398/6/4 402/6/4 406/6/4
f 402/5/4 403/5/4 406/5/4
f 403/6/4 401/6/4 407/6/4
f 406/5/4 403/5/4 407/5/4
f 398/6/4 406/6/4 410/6/4
f 406/6/4 407/6/4 410/6/4
f 410/6/4 407/6/4 411/6/4
f 407/6/4 401/6/4 412/6/4
f 411/6/4 407/6/4 412/6/4
f 412/6/4 401/6/4 413/6/4
f 408/2/4 409/2/4 415/2/4
f 415/2/4 409/2/4 416/2/4
f 411/5/4 412/5/4 417/5/4
f 414/2/4 415/2/4 419/2/4
f 419/2/4 415/2/4 420/2/4
f 417/5/4 418/5/4 421/5/4
f 411/5/4 417/5/4 421/5/4
f 421/5/4 418/5/4 422/5/4
f 423/3/4 424/3/4 426/3/4
f 424/2/4 425/2/4 427/2/4
f 426/3/4 424/3/4 427/3/4
f 427/2/4 425/2/4 428/2/4
f 428/2/4 429/2/4 430/2/4
f 427/2/4 428/2/4 430/2/4
f 430/2/4 429/2/4 431/2/4
f 427/2/4 430/2/4 433/2/4
f 433/2/4 430/2/4 434/2/4
f 431/2/4 429/2/4 435/2/4
f 433/2/4 434/2/4 436/2/4
f 434/2/4 435/2/4 436/2/4
f 435/2/4 429/2/4 437/2/4
f 436/2/4 435/2/4 437/2/4
f 432/3/4 433/3/4 438/3/4
f 433/2/4 436/2/4 439/2/4
f 438/3/4 433/3/4 439/3/4
f 439/2/4 436/2/4 440/2/4
f 437/2/4 429/2/4 441/2/4
f 439/2/4 440/2/4 442/2/4
f 440/2/4 441/2/4 442/2/4
f 441/2/4 429/2/4 443/2/4
f 442/2/4 441/2/4 443/2/4
f 439/2/4 442/2/4 444/2/4
f 444/2/4 442/2/4 445/2/4
f 439/2/4 444/2/4 447/2/4
f 447/2/4 444/2/4 448/2/4
f 448/2/4 444/2/4 449/2/4
f 446/3/4 447/3/4 450/3/4
f 447/2/4 448/2/4 451/2/4
f 450/3/4 447/3/4 451/3/4
f 451/2/4 448/2/4 452/2/4
f 457/6/5 454/6/5 453/6/5
f 458/6/5 454/6/5 457/6/5
f 459/6/5 456/6/5 455/6/5
f 460/6/5 456/6/5 459/6/5
f 465/6/5 462/6/5 461/6/5
f 466/6/5 462/6/5 465/6/5
f 467/6/5 464/6/5 463/6/5
f 468/6/5 464/6/5 467/6/5
f 475/5/5 470/5/5 469/5/5
f 476/5/5 470/5/5 475/5/5
f 477/5/5 472/5/5 471/5/5
f 478/5/5 472/5/5 477/5/5
f 479/5/5 474/5/5 473/5/5
f 480/5/5 474/5/5 479/5/5
f 487/5/5 482/5/5 481/5/5
f 488/5/5 482/5/5 487/5/5
f 489/5/5 484/5/5 483/5/5
f 490/5/5 484/5/5 489/5/5
f 491/5/5 486/5/5 485/5/5
f 492/5/5 486/5/5 491/5/5
f 499/3/5 494/3/5 493/3/5
f 500/3/5 494/3/5 499/3/5
f 501/3/5 496/3/5 495/3/5
f 502/3/5 496/3/5 501/3/5
f 503/3/5 498/3/5 497/3/5
f 504/3/5 498/3/5 503/3/5
f 512/3/5 506/3/5 505/3/5
f 513/3/5 506/3/5 512/3/5
f 514/3/5 508/3/5 507/3/5
f 515/3/5 508/3/5 514/3/5
f 516/3/5 510/3/5 509/3/5
f 517/5/5 511/5/5 510/5/5
f 517/3/5 510/3/5 516/3/5
f 518/5/5 511/5/5 517/5/5
f 525/3/5 520/3/5 519/3/5
f 526/3/5 520/3/5 525/3/5
f 527/3/5 522/3/5 521/3/5
f 528/3/5 522/3/5 527/3/5
f 529/3/5 524/3/5 523/3/5
f 530/3/5 524/3/5 529/3/5
f 535/2/5 532/2/5 531/2/5
f 536/2/5 532/2/5 535/2/5
f 537/2/5 534/2/5 533/2/5
f 538/2/5 534/2/5 537/2/5
f 543/2/5 540/2/5 539/2/5
f 544/2/5 540/2/5 543/2/5
f 545/2/5 542/2/5 541/2/5
f 546/2/5 542/2/5 545/2/5
f 551/2/5 548/2/5 547/2/5
f 552/2/5 548/2/5 551/2/5
f 553/2/5 550/2/5 549/2/5
f 554/2/5 550/2/5 553/2/5
f 560/2/5 556/2/5 555/2/5
f 561/2/5 556/2/5 560/2/5
f 562/2/5 558/2/5 557/2/5
f 563/2/5 558/2/5 562/2/5
f 565/2/5 560/2/5 559/2/5
f 566/2/5 560/2/5 565/2/5
f 569/2/5 564/2/5 563/2/5
f 570/2/5 564/2/5 569/2/5
f 571/2/5 567/2/5 566/2/5
f 572/2/5 567/2/5 571/2/5
f 573/2/5 569/2/5 568/2/5
f 574/2/5 569/2/5 573/2/5
f 575/5/6 576/5/6 579/5/6
f 579/5/6 576/5/6 580/5/6
f 577/5/6 578/5/6 581/5/6
f 581/5/6 578/5/6 582/5/6
f 583/5/6 584/5/6 587/5/6
f 587/5/6 584/5/6 588/5/6
f 585/5/6 586/5/6 589/5/6
f 589/5/6 586/5/6 590/5/6
f 591/2/6 592/2/6 593/2/6
f 593/2/6 592/2/6 594/2/6
f 595/1/6 596/1/6 597/1/6
f 597/1/6 596/1/6 598/1/6
f 597/5/6 598/5/6 599/5/6
f 599/5/6 598/5/6 600/5/6
f 599/1/6 600/1/6 601/1/6
f 601/1/6 600/1/6 602/1/6
f 603/2/6 604/2/6 605/2/6
f 605/2/6 604/2/6 606/2/6
f 609/2/6 610/2/6 611/2/6
f 611/2/6 610/2/6 612/2/6
f 612/2/6 613/2/6 615/2/6
f 615/2/6 613/2/6 616/2/6
f 607/2/6 608/2/6 617/2/6
f 617/2/6 608/2/6 618/2/6
f 614/2/6 615/2/6 619/2/6
f 619/2/6 615/2/6 620/2/6
f 621/2/6 622/2/6 628/2/6
f 628/2/6 622/2/6 629/2/6
f 623/2/6 624/2/6 630/2/6
f 630/2/6 624/2/6 631/2/6
f 625/2/6 626/2/6 632/2/6
f 632/2/6 626/2/6 633/2/6
f 627/2/6 628/2/6 635/2/6
f 635/2/6 628/2/6 636/2/6
f 633/2/6 634/2/6 639/2/6
f 632/2/6 633/2/6 639/2/6
f 631/2/6 632/2/6 639/2/6
f 639/2/6 634/2/6 640/2/6
f 640/2/6 634/2/6 641/2/6
f 641/2/6 634/2/6 642/2/6
f 636/2/6 637/2/6 643/2/6
f 643/2/6 637/2/6 644/2/6
f 638/2/6 639/2/6 645/2/6
f 645/2/6 639/2/6 646/2/6
f 640/2/6 641/2/6 647/2/6
f 647/2/6 641/2/6 648/2/6
f 649/2/6 650/2/6 651/2/6
f 651/2/6 650/2/6 652/2/6
